<?xml version="1.0" encoding="iso-8859-1"?>
<!-- Generator: Adobe Illustrator 19.0.0, SVG Export Plug-In . SVG Version: 6.00 Build 0)  -->
<svg version="1.1" id="Layer_1" xmlns="http://www.w3.org/2000/svg" xmlns:xlink="http://www.w3.org/1999/xlink" x="0px" y="0px"
	 viewBox="0 0 512 512" style="enable-background:new 0 0 512 512;" xml:space="preserve">
<circle style="fill:#366695;" cx="256" cy="256" r="256"/>
<g>
	<polygon style="fill:#263A7A;" points="110.33,194.201 164.216,248.086 138.2,166.357 110.618,191.354 	"/>
	<path style="fill:#263A7A;" d="M257.986,511.974C398.455,510.905,512,396.721,512,256c0-1.557-0.031-3.106-0.059-4.656
		L398.51,137.481l-38.35,11.199l-36-36l-48.047,16.779L130.948,383.917L257.986,511.974z"/>
</g>
<g>
	<polygon style="fill:#FDE085;" points="259.862,143.791 324.16,112.681 302.39,80.93 256,125.569 209.61,80.93 187.84,112.681 
		252.138,143.791 254.062,146.597 256,145.66 257.938,146.597 	"/>
	<polyline style="fill:#FDE085;" points="209.61,80.93 187.84,112.681 252.138,143.791 254.062,146.597 255.426,145.937 
		255.426,125.018 	"/>
</g>
<polygon style="fill:#FFC61B;" points="302.39,80.93 256,125.569 255.426,125.018 255.426,145.937 256,145.66 257.938,146.597 
	259.862,143.791 324.16,112.681 "/>
<path style="fill:#FF6262;" d="M141.812,388.427h228.093c8.518,0,15.426-6.897,15.438-15.415l0.305-211.182H126.679l-0.305,211.137
	C126.362,381.502,133.277,388.427,141.812,388.427z"/>
<path style="fill:#CE4545;" d="M255.426,161.83v226.597h114.479c8.518,0,15.426-6.897,15.438-15.415l0.305-211.182L255.426,161.83
	L255.426,161.83z"/>
<path style="fill:#FFAD9E;" d="M110.33,194.201h291.34v-47.144c0-9.719-7.878-17.598-17.598-17.598H127.929
	c-9.719-0.002-17.599,7.878-17.599,17.598V194.201z"/>
<path style="fill:#FF6262;" d="M401.67,147.058c0-9.719-7.88-17.599-17.598-17.599H255.426v64.743H401.67V147.058z"/>
<rect x="239.813" y="129.465" style="fill:#FFEDB5;" width="32.372" height="258.965"/>
<rect x="255.431" y="129.465" style="fill:#FEE187;" width="16.76" height="258.965"/>
<path style="fill:#AD003E;" d="M256,332.934c13.621,0,47.085-35.706,47.085-49.328c0-13.621-11.042-24.664-24.664-24.664
	c-9.968,0-18.532,5.923-22.421,14.433c-3.889-8.509-12.455-14.433-22.421-14.433c-13.621,0-24.664,11.042-24.664,24.664
	C208.915,297.229,242.379,332.934,256,332.934z"/>
<path style="fill:#940030;" d="M278.421,258.943c-9.966,0-18.532,5.923-22.421,14.433c-0.178-0.39-0.376-0.767-0.574-1.146v60.661
	c0.19,0.012,0.391,0.045,0.574,0.045c13.621,0,47.085-35.706,47.085-49.328C303.085,269.986,292.043,258.943,278.421,258.943z"/>
<g>
</g>
<g>
</g>
<g>
</g>
<g>
</g>
<g>
</g>
<g>
</g>
<g>
</g>
<g>
</g>
<g>
</g>
<g>
</g>
<g>
</g>
<g>
</g>
<g>
</g>
<g>
</g>
<g>
</g>
</svg>
